<?xml version="1.0" standalone="no"?>
<!DOCTYPE svg PUBLIC "-//W3C//DTD SVG 20010904//EN"
 "http://www.w3.org/TR/2001/REC-SVG-20010904/DTD/svg10.dtd">
<svg version="1.0" xmlns="http://www.w3.org/2000/svg"
 width="700.000000pt" height="700.000000pt" viewBox="0 0 700.000000 700.000000"
 preserveAspectRatio="xMidYMid meet">
<metadata>
Created by potrace 1.14, written by Peter Selinger 2001-2017
</metadata>
<g transform="translate(0.000000,700.000000) scale(0.100000,-0.100000)"
fill="#000000" stroke="none">
<path d="M3250 6994 c-25 -2 -103 -11 -175 -20 -1253 -151 -2334 -974 -2815
-2145 -347 -845 -347 -1813 0 -2658 453 -1102 1440 -1902 2610 -2115 239 -43
339 -51 640 -50 311 0 427 11 690 64 713 143 1401 533 1879 1064 629 698 946
1549 918 2466 -14 430 -86 785 -240 1180 -261 670 -734 1250 -1347 1653 -438
288 -938 471 -1480 542 -119 16 -573 28 -680 19z m998 -1254 l52 0 0 -410 0
-410 -82 0 c-96 0 -199 -20 -254 -48 -106 -55 -164 -176 -164 -342 l0 -70 260
0 260 0 0 -400 0 -400 -260 0 -260 0 -2 -1182 -3 -1183 -482 -3 -483 -2 -2
1182 -3 1183 -177 3 -178 2 0 400 0 400 179 0 178 0 6 168 c10 288 74 498 207
677 81 108 225 227 360 295 73 37 231 88 347 110 108 22 347 41 413 34 19 -2
59 -4 88 -4z"/>
</g>
</svg>
