<svg width="821" height="646" viewBox="0 0 821 646" fill="none" xmlns="http://www.w3.org/2000/svg">
<g clip-path="url(#clip0_127_2)">
<path d="M215.144 291.444C213.338 291.444 211.87 292.912 211.87 294.718V320.909C211.87 322.715 213.338 324.183 215.144 324.183C216.949 324.183 218.417 322.715 218.417 320.909V294.718C218.417 292.912 216.949 291.444 215.144 291.444Z" fill="#3F3D56"/>
<path d="M584.998 2H290.5C256.531 5.46911 231.031 29.5729 231.031 62.9691V581.969C231.031 615.365 257.104 643.338 290.5 643.338H584.998C618.394 643.338 645.467 616.265 645.467 582.869V62.4691C645.467 29.0729 618.394 2 584.998 2Z" fill="white"/>
<path d="M587.537 645.769H293.04C258.908 645.769 231.139 618.001 231.139 583.869V63.4694C231.139 29.3373 258.908 1.56836 293.04 1.56836H587.537C621.669 1.56836 649.438 29.3373 649.438 63.4694V583.869C649.438 618.001 621.669 645.769 587.537 645.769ZM293.04 4.43217C260.486 4.43217 234.002 30.916 234.002 63.4694V583.869C234.002 616.422 260.486 642.906 293.04 642.906H587.537C620.091 642.906 646.575 616.422 646.575 583.869V63.4694C646.575 30.916 620.091 4.43217 587.537 4.43217H293.04Z" fill="#3F3D56"/>
<path d="M497.723 190H382.279C379.368 190 377 188.205 377 186C377 183.794 379.368 182 382.279 182H497.723C500.633 182 503 183.794 503 186C503 188.205 500.633 190 497.723 190Z" fill="#F3834E"/>
<path d="M596.979 129H509.022C506.804 129 505 127.205 505 125C505 122.794 506.804 121 509.022 121H596.979C599.197 121 601 122.794 601 125C601 127.205 599.197 129 596.979 129Z" fill="#E7AAF6"/>
<path d="M339.194 39H277.807C276.259 39 275 37.6539 275 35.9997C275 34.3454 276.259 33 277.807 33H339.194C340.741 33 342 34.3454 342 35.9997C342 37.654 340.741 39 339.194 39Z" fill="#33AAFF"/>
<path d="M366.979 28H279.022C276.804 28 275 26.4296 275 24.4996C275 22.5697 276.804 21 279.022 21H366.979C369.197 21 371 22.5697 371 24.4996C371 26.4296 369.197 28 366.979 28Z" fill="#E4E4E4"/>
<path d="M556.463 31.0929C560.235 31.0929 563.292 28.0355 563.292 24.2641C563.292 20.4927 560.235 17.4353 556.463 17.4353C552.692 17.4353 549.634 20.4927 549.634 24.2641C549.634 28.0355 552.692 31.0929 556.463 31.0929Z" fill="#33AAFF"/>
<path d="M575.242 31.0929C579.014 31.0929 582.071 28.0355 582.071 24.2641C582.071 20.4927 579.014 17.4353 575.242 17.4353C571.471 17.4353 568.414 20.4927 568.414 24.2641C568.414 28.0355 571.471 31.0929 575.242 31.0929Z" fill="#E6E6E6"/>
<path d="M594.021 31.0929C597.793 31.0929 600.85 28.0355 600.85 24.2641C600.85 20.4927 597.793 17.4353 594.021 17.4353C590.25 17.4353 587.192 20.4927 587.192 24.2641C587.192 28.0355 590.25 31.0929 594.021 31.0929Z" fill="#F3834E"/>
<path d="M524.323 467.571C524.323 468.516 525.082 469.275 526.027 469.275H818.55C819.495 469.275 820.254 468.516 820.254 467.571C820.254 466.626 819.495 465.867 818.55 465.867H526.027C525.082 465.867 524.323 466.626 524.323 467.571Z" fill="#3F3D56"/>
<path d="M292 212.704C292 213.649 292.759 214.408 293.704 214.408H586.227C587.172 214.408 587.931 213.649 587.931 212.704C587.931 211.759 587.172 211 586.227 211H293.704C292.759 211 292 211.759 292 212.704Z" fill="#3F3D56"/>
<path d="M558.742 358H383.259C380.359 358 378 356.205 378 354C378 351.794 380.359 350 383.259 350H558.742C561.642 350 564 351.794 564 354C564 356.205 561.642 358 558.742 358Z" fill="#3CC189"/>
<path d="M329.706 367.474C336.823 367.474 342.593 361.704 342.593 354.587C342.593 347.47 336.823 341.7 329.706 341.7C322.589 341.7 316.819 347.47 316.819 354.587C316.819 361.704 322.589 367.474 329.706 367.474Z" fill="#F3834E"/>
<path d="M328.274 376.066V373.202C338.933 373.202 347.605 364.53 347.605 353.871C347.605 343.212 338.933 334.541 328.274 334.541V331.677C340.512 331.677 350.468 341.633 350.468 353.871C350.468 366.11 340.512 376.066 328.274 376.066Z" fill="#E0E0E0"/>
<path d="M174.781 302.615C180.038 297.265 187.059 295.641 190.463 298.987C193.867 302.333 192.364 309.381 187.105 314.732C185.033 316.898 182.473 318.537 179.638 319.511L157.079 341.896L146.8 331.086L170.131 310.165C171.056 307.313 172.65 304.724 174.781 302.615Z" fill="#FFB6B6"/>
<path d="M102.633 284.137L126.286 336.61L164.056 316.165L177.574 323.339C177.574 323.339 146.697 374.959 125.556 369.083C104.415 363.206 66.8739 309.925 73.6378 293.48C80.4018 277.036 102.633 284.137 102.633 284.137Z" fill="#E6E6E6"/>
<path d="M0 644.013C0 644.673 0.53003 645.203 1.19006 645.203H730.48C731.14 645.203 731.67 644.673 731.67 644.013C731.67 643.353 731.14 642.823 730.48 642.823H1.19006C0.53003 642.823 0 643.353 0 644.013Z" fill="#3F3D56"/>
<path d="M218.322 387.479C254.165 387.479 283.221 359.035 283.221 323.947C283.221 288.86 254.165 260.416 218.322 260.416C182.48 260.416 153.423 288.86 153.423 323.947C153.423 359.035 182.48 387.479 218.322 387.479Z" fill="url(#paint0_linear_127_2)"/>
<path d="M92.2613 633.848L109.508 633.846L117.713 567.322L92.2578 567.324L92.2613 633.848Z" fill="#FFB6B6"/>
<path d="M151.351 633.457C151.888 634.361 152.172 637.28 152.172 638.332C152.172 641.565 149.551 644.186 146.318 644.186H92.9064C90.701 644.186 88.913 642.398 88.913 640.192V637.969C88.913 637.969 86.2708 631.285 91.7107 623.048C91.7107 623.048 98.4717 629.498 108.574 619.395L111.554 613.998L133.119 629.77L145.072 631.241C147.687 631.563 150.006 631.191 151.351 633.457Z" fill="#2F2E41"/>
<path d="M105.312 287.504L105.661 264.242L91.3158 255.3L75.7173 274.38L105.312 287.504Z" fill="#FFB6B6"/>
<path opacity="0.1" d="M105.312 287.504L106.241 264.822L91.3159 255.3L96.3866 283.37L105.312 287.504Z" fill="black"/>
<path d="M140.15 441.325L116.384 603.047H86.5671L90.5319 510.732L92.6186 462.192L86.5671 439.087C86.5671 439.087 83.808 433.952 81.4836 427.726C78.8636 420.701 76.7942 412.278 79.8664 408.285C80.9967 406.812 83.9355 405.723 87.9292 404.911C90.3696 404.413 93.2099 404.024 96.2762 403.723C113.909 401.978 138.991 403.068 138.991 403.068L139.628 424.109L139.982 435.859L140.15 441.325Z" fill="#2F2E41"/>
<path d="M61.8799 625.939L78.9436 628.446L96.7373 563.822L71.5529 560.122L61.8799 625.939Z" fill="#FFB6B6"/>
<path d="M120.399 634.147C120.798 635.12 120.654 638.049 120.501 639.09C120.031 642.288 117.057 644.5 113.858 644.03L61.0146 636.261C58.8326 635.94 57.3237 633.911 57.6446 631.729L57.968 629.529C57.968 629.529 56.326 622.532 62.9063 615.173C62.9063 615.173 68.6572 622.539 80.122 614.013L83.8545 609.106L102.896 627.847L114.509 631.042C117.049 631.741 119.397 631.71 120.399 634.147Z" fill="#2F2E41"/>
<path d="M140.524 414.354L137.264 442.426L119.488 501.582L90.2243 598.973L60.7275 594.638L87.2005 456.163L84.5793 432.418C84.5793 432.418 83.7256 430.058 82.7471 426.602C80.8048 419.766 78.3687 408.634 81.0488 402.955C81.4107 402.183 81.865 401.514 82.427 400.971C83.4811 399.949 85.6236 399.328 88.494 398.999C100.492 397.643 125.2 401.521 136.195 403.425L140.524 414.354Z" fill="#2F2E41"/>
<path d="M78.997 269.459L107.979 283.37C107.979 283.37 138.701 374.375 138.701 379.012C138.701 383.65 147.396 386.548 142.179 391.765C136.962 396.981 151.889 401.4 143.846 405.567C135.803 409.734 85.6288 432.527 80.0497 430.472C64.6622 424.803 80.7017 403.971 80.7017 403.971C80.7017 403.971 69.143 394.663 70.8819 390.026C72.6209 385.388 60.4482 296.702 60.4482 296.702L78.997 269.459Z" fill="#E6E6E6"/>
<path d="M167.31 349.648C174.502 347.523 181.429 349.512 182.781 354.09C184.132 358.668 179.397 364.1 172.202 366.225C169.339 367.113 166.305 367.303 163.354 366.778L132.764 375.397L129.025 360.956L159.579 353.992C161.772 351.948 164.423 350.458 167.31 349.648Z" fill="#FFB6B6"/>
<path d="M113.204 298.469L108.409 355.826L151.355 356.288L159.69 369.122C159.69 369.122 107.637 399.262 92.0067 383.862C76.3766 368.461 69.422 303.654 83.3185 292.561C97.2151 281.468 113.204 298.469 113.204 298.469Z" fill="#E6E6E6"/>
<path d="M104.708 270.991C118.42 270.991 129.536 259.875 129.536 246.163C129.536 232.451 118.42 221.335 104.708 221.335C90.9961 221.335 79.8804 232.451 79.8804 246.163C79.8804 259.875 90.9961 270.991 104.708 270.991Z" fill="#FFB6B6"/>
<path d="M91.3168 246.261C91.3168 246.261 95.2267 239.81 97.3771 236.486C99.5275 233.163 99.5275 228.294 99.5275 228.294C99.5275 228.294 119.468 227.885 126.115 233.554C132.761 239.223 137.453 218.305 131.002 211.072C131.002 211.072 128.265 214.2 128.851 215.373L129.438 216.546C129.438 216.546 126.115 203.252 116.535 200.711C116.535 200.711 111.207 203.463 112.698 205.02C114.189 206.576 101.287 195.628 97.3771 202.079C97.3771 202.079 87.798 201.884 88.9709 205.403L88.3844 207.553C88.3844 207.553 80.1737 205.012 79.5872 211.072C79.5872 211.072 82.5196 211.072 84.0836 212.636C85.6475 214.2 78.4143 218.696 78.4143 218.696C78.4143 218.696 70.0081 241.765 81.3467 251.148C81.3467 251.148 81.4444 239.907 85.9408 242.644C90.4371 245.381 91.3168 246.261 91.3168 246.261Z" fill="#2F2E41"/>
<path d="M114.944 260.923L114.053 263.269L120.739 263.464L121.184 261.314L114.944 260.923Z" fill="#2F2E41"/>
<path d="M121.63 252.517C121.63 252.517 111.601 249.78 105.584 257.99L104.247 259.554C104.247 259.554 91.5435 245.283 92.6578 240.005L89.9834 240.201L87.3091 253.885C87.3091 253.885 95.7778 268.547 107.59 269.134C107.59 269.134 118.955 271.87 121.407 267.179C123.858 262.487 128.079 255.568 128.079 255.568L121.63 252.517ZM119.806 265.615H113.161C111.601 265.615 107.59 259.945 107.59 259.945C109.818 256.427 116.504 256.231 116.504 256.231H123.765L124.304 258.381L119.806 265.615Z" fill="#2F2E41"/>
<path d="M605.599 635.737L594.698 633.381L598.597 590.213L614.686 593.69L605.599 635.737Z" fill="#A0616A"/>
<path d="M568.303 627.42C567.84 627.919 567.263 629.725 567.119 630.39C566.677 632.433 567.976 634.448 570.019 634.889L603.779 642.183C605.173 642.485 606.547 641.599 606.849 640.205L607.152 638.799C607.152 638.799 609.735 634.936 607.422 628.986C607.422 628.986 602.267 632.14 597.261 624.374L596.115 620.556L580.331 627.58L572.575 626.878C570.878 626.724 569.463 626.172 568.303 627.42Z" fill="#2F2E41"/>
<path d="M586.1 632.435L577.006 625.979L597.576 587.827L610.999 597.355L586.1 632.435Z" fill="#A0616A"/>
<path d="M555.086 610.114C554.464 610.39 553.222 611.823 552.829 612.378C551.619 614.083 552.02 616.445 553.725 617.655L581.891 637.645C583.054 638.47 584.666 638.197 585.492 637.033L586.324 635.861C586.324 635.861 590.218 633.325 590.433 626.945C590.433 626.945 584.453 627.816 582.907 618.708L583.355 614.747L566.08 614.993L559.226 611.295C557.727 610.486 556.643 609.422 555.086 610.114Z" fill="#2F2E41"/>
<path d="M717.117 419.008C717.117 419.008 734.076 442.066 700.157 467.989L630.907 445.86L655.639 394.276L677.545 382.263L717.117 419.008Z" fill="#2F2E41"/>
<path d="M630.907 445.86L604.055 498.151L587.095 606.974L608.294 608.387L629.494 505.218L666.945 449.393L640.8 437.38" fill="#2F2E41"/>
<path d="M700.158 451.563V467.988L652.106 520.764C652.106 520.764 652.106 560.336 633.733 578.708L612.534 611.214L594.162 601.321L621.014 506.631L669.065 444.447L700.158 451.563Z" fill="#2F2E41"/>
<path d="M666.012 288.723L673.299 323.234L701.079 316.445C701.079 316.445 687.347 287.883 690.079 276.568L666.012 288.723Z" fill="#A0616A"/>
<path opacity="0.1" d="M666.012 288.723L673.299 323.234L701.079 316.445C701.079 316.445 687.347 287.883 690.079 276.568L666.012 288.723Z" fill="black"/>
<path d="M692.384 293.933L671.185 303.826C671.185 303.826 660.28 310.491 660.079 314.931C659.879 319.372 661.292 340.571 661.292 340.571C661.292 340.571 652.813 349.05 658.466 366.01L655.639 394.275L719.237 428.194L713.584 368.836L716.41 313.719L692.384 293.933Z" fill="#E6E6E6"/>
<path d="M711.413 454.766C708.931 460.461 703.981 463.797 700.357 462.216C696.733 460.636 695.808 454.739 698.292 449.043C699.253 446.754 700.748 444.728 702.652 443.135L713.474 419.138L724.626 424.456L712.774 447.548C712.904 450.028 712.437 452.503 711.413 454.766Z" fill="#A0616A"/>
<path d="M700.157 317.252C700.157 317.252 715.703 307.359 721.356 318.665C727.009 329.971 739.729 387.916 739.729 387.916L721.356 443.034L704.397 435.967L719.237 376.648L700.157 317.252Z" fill="#E6E6E6"/>
<path d="M620.481 445.869C616.075 450.249 610.244 451.527 607.457 448.722C604.67 445.918 605.983 440.095 610.391 435.714C612.127 433.94 614.264 432.608 616.621 431.829L635.522 413.506L643.931 422.559L624.405 439.661C623.612 442.014 622.266 444.143 620.481 445.869Z" fill="#A0616A"/>
<path d="M660.677 313.88C660.677 313.88 687.781 312.772 688.871 325.366C689.961 337.959 671.433 394.153 671.433 394.153L634.047 438.625L620.884 425.808L656.533 376.128L660.677 313.88Z" fill="#E6E6E6"/>
<path d="M738.935 463.127L565.627 435.174C562.763 434.712 560.808 432.006 561.27 429.142C561.732 426.278 564.438 424.325 567.302 424.787L740.61 452.74C743.474 453.202 745.428 455.907 744.966 458.771C744.504 461.634 741.799 463.589 738.935 463.127Z" fill="#33AAFF"/>
<path d="M514.003 433.747C521.12 433.747 526.89 427.977 526.89 420.86C526.89 413.743 521.12 407.973 514.003 407.973C506.885 407.973 501.116 413.743 501.116 420.86C501.116 427.977 506.885 433.747 514.003 433.747Z" fill="#36B37E"/>
<path d="M509.169 441.836L509.625 439.009C520.148 440.706 530.09 433.527 531.787 423.003C533.484 412.48 526.304 402.538 515.781 400.841L516.237 398.014C528.319 399.963 536.563 411.377 534.614 423.459C532.666 435.541 521.251 443.785 509.169 441.836Z" fill="#E0E0E0"/>
<path d="M668.79 296.059C680.579 296.059 690.135 286.503 690.135 274.715C690.135 262.926 680.579 253.37 668.79 253.37C657.002 253.37 647.446 262.926 647.446 274.715C647.446 286.503 657.002 296.059 668.79 296.059Z" fill="#A0616A"/>
<path d="M681.404 274.714C681.404 274.714 668.079 262.619 659.541 266.888C651.004 271.157 646.735 274.003 646.735 274.003C646.735 274.003 639.62 263.331 650.292 254.082C650.292 254.082 628.571 244.592 644.412 229.771C660.253 214.951 674.482 220.643 674.482 220.643C674.482 220.643 693.692 229.18 680.174 246.256C680.174 246.256 699.867 258.745 689.665 279.181C689.665 279.181 688.712 266.177 685.866 269.734C683.02 273.291 681.404 274.714 681.404 274.714Z" fill="#2F2E41"/>
<path d="M200.938 303.83L202.685 313.232" stroke="white" stroke-width="2.5" stroke-linecap="round" stroke-linejoin="round"/>
<path d="M204.607 323.575L209.325 348.963" stroke="white" stroke-width="2.5" stroke-linecap="round" stroke-linejoin="round"/>
<path d="M207.519 302.606L211.497 313.54C211.914 315.785 211.422 318.103 210.13 319.985C208.838 321.867 206.851 323.158 204.607 323.576C202.362 323.993 200.044 323.501 198.162 322.209C196.28 320.917 194.989 318.93 194.572 316.686L194.355 305.053" stroke="white" stroke-width="2.5" stroke-linecap="round" stroke-linejoin="round"/>
<path d="M234.738 328.676L221.574 331.123C221.574 331.123 219.502 304.271 229.146 298.587L237.534 343.721" stroke="white" stroke-width="2.5" stroke-linecap="round" stroke-linejoin="round"/>
</g>
<defs>
<linearGradient id="paint0_linear_127_2" x1="163.5" y1="311.5" x2="283" y2="370.5" gradientUnits="userSpaceOnUse">
<stop stop-color="#F0692A"/>
<stop offset="1" stop-color="#FFA66B"/>
</linearGradient>
<clipPath id="clip0_127_2">
<rect width="820.254" height="645.769" fill="white"/>
</clipPath>
</defs>
</svg>
