<svg width="681" height="687" viewBox="0 0 681 687" fill="none" xmlns="http://www.w3.org/2000/svg">
<path d="M340.5 686.689C528.553 686.689 681 677.735 681 666.689C681 655.643 528.553 646.689 340.5 646.689C152.447 646.689 0 655.643 0 666.689C0 677.735 152.447 686.689 340.5 686.689Z" fill="#CACACA" fill-opacity="0.3"/>
<path d="M386 158.431H382.337V58.08C382.337 42.6762 376.218 27.9034 365.326 17.0112C354.434 6.11913 339.661 0 324.257 0H217.954H111.651C96.2475 0 81.4746 6.11913 70.5825 17.0112C59.6904 27.9034 53.5713 42.6762 53.5713 58.08V608.61C53.5713 624.014 59.6904 638.787 70.5825 649.679C81.4746 660.571 96.2475 666.69 111.651 666.69H324.257C339.661 666.69 354.434 660.571 365.326 649.679C376.218 638.787 382.337 624.014 382.337 608.61V229.862H386V158.431Z" fill="#3F3D56"/>
<path d="M386 158.431H382.337V58.08C382.337 42.6762 376.218 27.9034 365.326 17.0112C354.434 6.11913 339.661 0 324.257 0H217.954H111.651C96.2475 0 81.4746 6.11913 70.5825 17.0112C59.6904 27.9034 53.5713 42.6762 53.5713 58.08V608.61C53.5713 624.014 59.6904 638.787 70.5825 649.679C81.4746 660.571 96.2475 666.69 111.651 666.69H324.257C339.661 666.69 354.434 660.571 365.326 649.679C376.218 638.787 382.337 624.014 382.337 608.61V229.862H386V158.431Z" stroke="black"/>
<path d="M369.975 58.4861V608.205C369.974 619.709 365.404 630.741 357.27 638.876C349.136 647.01 338.103 651.58 326.6 651.58H112.974C101.47 651.58 90.4382 647.01 82.3041 638.876C74.1701 630.741 69.6001 619.709 69.5996 608.206V58.4861C69.5999 46.9824 74.1698 35.95 82.3041 27.8156C90.4385 19.6813 101.471 15.1113 112.975 15.1111H138.891C137.617 18.2403 137.132 21.6345 137.478 24.9952C137.824 28.3559 138.991 31.58 140.875 34.3839C142.76 37.1879 145.305 39.4857 148.286 41.0754C151.267 42.665 154.593 43.4976 157.972 43.5001H279.772C283.15 43.4978 286.476 42.6653 289.458 41.0757C292.439 39.4862 294.984 37.1883 296.868 34.3844C298.753 31.5804 299.92 28.3562 300.266 24.9954C300.612 21.6347 300.127 18.2404 298.854 15.1111H326.6C338.103 15.1113 349.136 19.6813 357.27 27.8156C365.404 35.95 369.974 46.9824 369.975 58.4861Z" fill="white"/>
<path d="M168.286 474.693H163.793L165.293 386.937H166.793L168.286 474.693Z" fill="#E6E6E6"/>
<path d="M172.029 331.687L179.281 320.48C177.13 314.539 174.647 308.725 171.841 303.064L167.152 306.852L170.865 301.114C167.326 294.149 164.542 289.76 164.542 289.76C164.542 289.76 150 312.677 145.139 336.945L154.445 351.327L144.145 343.006C143.778 345.833 143.59 348.68 143.58 351.53C143.58 380.269 152.966 403.566 164.544 403.566C176.122 403.566 185.508 380.266 185.508 351.53C185.508 342.621 183.492 333.3 180.708 324.677L172.029 331.687Z" fill="#E8E8E8"/>
<path d="M285.245 474.693H280.752L282.252 386.937H283.752L285.245 474.693Z" fill="#E6E6E6"/>
<path d="M288.988 331.687L296.24 320.48C294.09 314.539 291.606 308.725 288.8 303.064L284.111 306.852L287.824 301.114C284.285 294.149 281.501 289.76 281.501 289.76C281.501 289.76 266.957 312.679 262.101 336.945L271.4 351.325L261.1 343.004C260.733 345.831 260.545 348.678 260.535 351.528C260.535 380.267 269.921 403.564 281.499 403.564C293.077 403.564 302.463 380.264 302.463 351.528C302.463 342.619 300.447 333.298 297.663 324.675L288.988 331.687Z" fill="#E8E8E8"/>
<path d="M164.867 183.798C187.665 183.798 206.147 165.316 206.147 142.518C206.147 119.72 187.665 101.238 164.867 101.238C142.069 101.238 123.587 119.72 123.587 142.518C123.587 165.316 142.069 183.798 164.867 183.798Z" fill="#6FC3FF"/>
<path d="M222.043 461.916H212.78L215.868 280.971H218.955L222.043 461.916Z" fill="#E6E6E6"/>
<path d="M229.762 167.051L244.715 143.945C240.28 131.696 235.159 119.706 229.374 108.034L219.705 115.843L227.361 104.011C220.061 89.649 214.324 80.6 214.324 80.6C214.324 80.6 184.336 127.856 174.317 177.89L193.5 207.545L172.258 190.388C171.501 196.216 171.112 202.087 171.093 207.964C171.093 267.221 190.446 315.258 214.319 315.258C238.192 315.258 257.545 267.221 257.545 207.964C257.545 189.594 253.389 170.375 247.656 152.596L229.762 167.051Z" fill="#E8E8E8"/>
<path d="M369.975 487.998V611.006C369.975 635.955 350.556 656.18 326.6 656.181H112.974C89.0187 656.181 69.5987 635.956 69.5977 611.006V499.99C106.636 454.708 160.187 427.645 217.26 425.366C274.333 423.087 329.717 445.801 369.975 487.998Z" fill="#F1F1F1"/>
<path opacity="0.2" d="M220.021 609.338C254.929 609.338 283.229 581.039 283.229 546.13C283.229 511.221 254.929 482.922 220.021 482.922C185.112 482.922 156.812 511.221 156.812 546.13C156.812 581.039 185.112 609.338 220.021 609.338Z" fill="#F0692A"/>
<path d="M220.02 597.025C248.129 597.025 270.915 574.239 270.915 546.13C270.915 518.021 248.129 495.235 220.02 495.235C191.911 495.235 169.125 518.021 169.125 546.13C169.125 574.239 191.911 597.025 220.02 597.025Z" fill="#F0692A"/>
<path d="M490.486 466.969C508.712 466.969 523.486 452.194 523.486 433.969C523.486 415.744 508.712 400.969 490.486 400.969C472.261 400.969 457.486 415.744 457.486 433.969C457.486 452.194 472.261 466.969 490.486 466.969Z" fill="#2F2E41"/>
<path d="M503.859 619.226L506.401 631.219L553.871 627.119L550.12 609.419L503.859 619.226Z" fill="#FFB8B8"/>
<path d="M500.163 656.707L492.175 619.013L506.739 615.927L511.64 639.057C512.046 640.969 512.07 642.943 511.713 644.865C511.355 646.787 510.623 648.62 509.557 650.259C508.491 651.898 507.113 653.311 505.501 654.417C503.89 655.523 502.076 656.301 500.163 656.707Z" fill="#2F2E41"/>
<path d="M474.121 618.586L468.778 629.621L423.678 614.264L431.564 597.979L474.121 618.586Z" fill="#FFB8B8"/>
<path d="M461.813 635.985L472.117 614.705L485.516 621.192L468.725 655.871C465.172 654.15 462.447 651.089 461.151 647.36C459.855 643.63 460.093 639.539 461.813 635.985Z" fill="#2F2E41"/>
<path d="M385.259 596.793C386.803 597.08 388.392 597.026 389.912 596.633C391.433 596.24 392.849 595.519 394.06 594.52C395.272 593.521 396.25 592.268 396.925 590.85C397.6 589.432 397.956 587.883 397.968 586.313L472.342 517.742L453.872 503.437L386.535 575.379C383.895 575.533 381.402 576.65 379.531 578.519C377.659 580.388 376.539 582.879 376.381 585.519C376.224 588.159 377.041 590.765 378.678 592.843C380.315 594.921 382.657 596.326 385.26 596.792L385.259 596.793Z" fill="#FFB8B8"/>
<path d="M486.344 468.459C499.909 468.459 510.905 457.463 510.905 443.898C510.905 430.333 499.909 419.337 486.344 419.337C472.78 419.337 461.783 430.333 461.783 443.898C461.783 457.463 472.78 468.459 486.344 468.459Z" fill="#FFB8B8"/>
<path d="M508.387 588.272C491.158 588.272 470.409 584.644 457.608 569.795L457.32 569.461L457.62 569.133C457.72 569.026 467.134 558.264 457.731 539.072L444.801 543.049L431.931 526.06L439.061 504.671L468.238 481.171C472.418 477.821 477.507 475.804 482.847 475.379C492.511 474.445 501.925 471.764 510.632 467.466C514.616 465.53 519.003 464.57 523.432 464.666L524.006 464.682C525.352 464.72 526.677 465.031 527.9 465.596C529.123 466.162 530.219 466.969 531.12 467.971C532.022 468.972 532.711 470.146 533.145 471.421C533.579 472.696 533.75 474.047 533.647 475.39C531.668 501.02 528.175 562.933 538.439 584.251L538.704 584.802L538.112 584.952C528.356 587.147 518.388 588.26 508.389 588.271L508.387 588.272Z" fill="url(#paint0_linear_212_56)"/>
<path d="M460.987 569.469C460.987 569.469 395.987 563.469 388.987 582.469C381.987 601.469 389.987 610.469 401.987 614.469C413.987 618.469 442.987 623.469 442.987 623.469L455.987 607.469L489.987 609.469C489.987 609.469 527.872 631.442 538.347 654.943C540.594 660.029 544.178 664.41 548.717 667.621C553.256 670.832 558.58 672.753 564.123 673.179C572.523 673.763 579.987 670.592 579.987 657.467C579.987 627.467 537.987 584.467 537.987 584.467L460.987 569.469Z" fill="#2F2E41"/>
<path d="M411.486 598.969C411.486 598.969 428.486 593.969 455.486 606.969Z" fill="#2F2E41"/>
<path d="M461.844 428.234C471.436 434.089 482.25 437.653 493.444 438.646L490.113 434.655C492.538 435.551 495.09 436.058 497.674 436.155C498.967 436.193 500.252 435.926 501.424 435.378C502.596 434.829 503.624 434.013 504.424 432.996C505.077 431.94 505.466 430.741 505.555 429.502C505.645 428.263 505.434 427.021 504.94 425.881C503.925 423.608 502.345 421.632 500.351 420.142C496.816 417.346 492.643 415.467 488.206 414.674C483.769 413.881 479.205 414.198 474.92 415.597C471.979 416.475 469.345 418.163 467.32 420.469C466.325 421.63 465.634 423.02 465.309 424.515C464.983 426.009 465.034 427.56 465.457 429.03" fill="#2F2E41"/>
<path d="M490.31 408.603C494.673 398.469 501.206 389.416 509.447 382.079C514.739 377.379 520.92 373.336 527.893 372.116C534.866 370.896 542.726 372.986 547.004 378.627C550.504 383.24 551.156 389.42 550.771 395.196C550.386 400.972 549.095 406.696 549.218 412.48C549.344 418.386 550.943 424.166 553.87 429.297C556.796 434.427 560.958 438.746 565.978 441.86C570.997 444.975 576.714 446.786 582.611 447.13C588.508 447.474 594.397 446.34 599.745 443.831C593.723 447.16 589.031 452.431 583.445 456.439C577.859 460.447 570.482 463.199 564.133 460.549C557.415 457.749 554.333 450.13 551.927 443.259L541.195 412.619C539.371 407.41 537.456 402.047 533.733 397.974C530.01 393.901 523.968 391.417 518.844 393.465C514.96 395.017 512.431 398.723 510.214 402.265C507.997 405.807 505.657 409.585 501.914 411.444C498.171 413.303 492.614 412.159 491.391 408.159" fill="#2F2E41"/>
<path d="M498.736 588.358C498.313 588.358 497.889 588.335 497.468 588.288C494.673 587.974 492.105 586.6 490.291 584.451C488.477 582.301 487.556 579.539 487.716 576.731C487.876 573.923 489.106 571.283 491.152 569.353C493.199 567.424 495.907 566.352 498.719 566.357C499.21 566.36 499.7 566.396 500.185 566.466L533.763 530.721L530.258 519.036L547.858 511.144L552.792 523.204C554.447 527.289 554.74 531.799 553.628 536.064C552.516 540.329 550.058 544.121 546.62 546.879L509.659 576.279C509.698 576.637 509.718 576.998 509.719 577.358C509.719 578.905 509.392 580.435 508.761 581.848C508.129 583.261 507.208 584.525 506.055 585.558C504.048 587.369 501.439 588.367 498.736 588.358Z" fill="#FFB8B8"/>
<path d="M524.986 469.469C526.151 468.952 527.407 468.675 528.681 468.655C529.955 468.636 531.22 468.874 532.399 469.355C533.579 469.837 534.649 470.552 535.545 471.458C536.441 472.363 537.145 473.441 537.614 474.625L554.986 518.469L527.986 536.469L524.986 469.469Z" fill="url(#paint1_linear_212_56)"/>
<path d="M211.5 540.333L222.092 548.277C222.51 548.591 223.1 548.529 223.444 548.135L242.667 526.167" stroke="white" stroke-width="2" stroke-linecap="round"/>
<path d="M245.5 546C245.5 551.328 243.831 556.522 240.728 560.853C237.624 565.184 233.242 568.434 228.197 570.147C223.151 571.859 217.696 571.949 212.598 570.402C207.499 568.855 203.013 565.75 199.769 561.523C196.526 557.296 194.688 552.16 194.514 546.834C194.339 541.509 195.837 536.263 198.798 531.833C201.758 527.403 206.031 524.011 211.018 522.134C216.004 520.258 221.453 519.99 226.6 521.369" stroke="white" stroke-width="2" stroke-linecap="round"/>
<defs>
<linearGradient id="paint0_linear_212_56" x1="485.317" y1="464.66" x2="485.317" y2="588.272" gradientUnits="userSpaceOnUse">
<stop stop-color="#F0692A"/>
<stop offset="1" stop-color="#F87D44"/>
</linearGradient>
<linearGradient id="paint1_linear_212_56" x1="475" y1="564" x2="539.986" y2="536.469" gradientUnits="userSpaceOnUse">
<stop stop-color="#F0692A" stop-opacity="0"/>
<stop offset="1" stop-color="#F0692A"/>
</linearGradient>
</defs>
</svg>
